<svg xmlns="http://www.w3.org/2000/svg" viewBox="0 0 100 100">
  <defs>
    <linearGradient id="bgGrad" x1="0%" y1="0%" x2="100%" y2="100%">
      <stop offset="0%" stop-color="#2a2a2a"/>
      <stop offset="100%" stop-color="#18181b"/>
    </linearGradient>
  </defs>
  <!-- Background rounded square -->
  <rect width="100" height="100" rx="20" fill="url(#bgGrad)"/>
  <!-- Subtle orange border -->
  <rect width="100" height="100" rx="20" fill="none" stroke="#ff9900" stroke-width="3" opacity="0.4"/>
  <!-- Chain link icon (Material Design "link" path, scaled 3.5x and centered) -->
  <g transform="translate(8 8) scale(3.5)">
    <path d="M3.9 12c0-1.71 1.39-3.1 3.1-3.1h4V7H7c-2.76 0-5 2.24-5 5s2.24 5 5 5h4v-1.9H7c-1.71 0-3.1-1.39-3.1-3.1zM8 13h8v-2H8v2zm9-6h-4v1.9h4c1.71 0 3.1 1.39 3.1 3.1s-1.39 3.1-3.1 3.1h-4V17h4c2.76 0 5-2.24 5-5s-2.24-5-5-5z" fill="#ff9900"/>
  </g>
</svg>
